<svg width="88" height="88" viewBox="0 0 88 88" fill="none" xmlns="http://www.w3.org/2000/svg">
<g filter="url(#filter0_d_2403_800)">
<rect x="4" width="80" height="80" fill="#68B738"/>
<path d="M41.8609 26C40.2317 26 38.9646 27.3676 38.9646 29.0999C38.9646 30.8321 40.2317 32.1997 41.8609 32.1997C43.49 32.1997 44.7571 30.8321 44.7571 29.0999C44.7571 27.3676 43.49 26 41.8609 26ZM41.8609 27.1852C42.8564 27.1852 43.5805 28.0331 43.5805 29.0999C43.5805 30.1027 42.7931 31.0145 41.8609 31.0145C40.8653 31.0145 40.1412 30.1666 40.1412 29.0999C40.1412 28.097 40.9196 27.1852 41.8609 27.1852ZM31 50.89C31 52.0752 31.4073 53.0781 32.3576 53.8987C33.3532 54.7557 34.5298 54.6827 34.5298 54.6827H53.5363C54.3146 54.6827 55.3464 54.2998 56.161 53.224C57.0027 52.2211 56.9484 50.8535 56.9484 50.8535V33.5308C56.9484 33.0932 56.8398 32.9291 56.2062 32.9291C55.5727 32.9291 55.5184 33.2026 55.5184 33.5217V50.8444C55.5003 51.1453 55.446 51.9385 54.7762 52.5767C54.0431 53.2058 53.3281 53.1237 53.3281 53.1237C53.3281 53.1237 35.2267 53.1237 34.3216 53.0964C33.9777 53.0325 33.4165 52.9049 32.8735 52.1846C32.3667 51.4553 32.4662 50.5435 32.4662 50.5435V33.2208C32.4662 32.7559 32.2309 32.5826 31.7422 32.5826C31.2534 32.5826 31 32.7559 31 33.1661V50.89ZM47.2913 34.479C46.2052 34.7161 45.1191 34.8619 43.0375 36.8495C40.9558 38.8553 39.4172 38.7641 37.8785 38.6729C36.3399 38.5818 34.7108 37.123 34.4393 36.7583C34.1044 36.4027 33.5342 36.6398 33.3532 36.8768C33.1993 37.1139 33.1993 37.5242 33.4618 37.8797C34.7289 39.065 35.9055 39.9767 38.1682 40.159C40.4308 40.3778 42.603 39.3476 44.0511 37.8797C45.4992 36.421 46.2233 36.1475 47.3094 35.9651C49.9341 35.5457 51.4727 36.5851 52.3778 37.2415C53.3734 38.3356 53.6449 38.0256 53.9164 37.7156C54.4595 36.9954 53.6901 36.4392 52.8303 35.801C51.0202 34.6158 49.3005 34.1599 47.3094 34.5246L47.2913 34.479ZM38.2406 41.6816C37.064 41.6816 36.1589 42.6845 36.1589 43.9609C36.1589 45.2373 37.064 46.2402 38.2406 46.2402C39.4172 46.2402 40.3222 45.2373 40.3222 43.9609C40.3222 42.6845 39.4172 41.6816 38.2406 41.6816ZM50.0065 42.4657C48.4679 42.4657 47.2008 43.8333 47.2008 45.4744C47.2008 47.1155 48.4679 48.483 50.0065 48.483C51.5451 48.483 52.8122 47.1155 52.8122 45.4744C52.8122 43.8333 51.5451 42.4657 50.0065 42.4657ZM50.0065 43.9244C50.803 43.9244 51.4546 44.6265 51.4546 45.4744C51.4546 46.3405 50.803 47.0243 50.0065 47.0243C49.21 47.0243 48.5584 46.3223 48.5584 45.4744C48.5584 44.6082 49.21 43.9244 50.0065 43.9244Z" fill="white"/>
</g>
<defs>
<filter id="filter0_d_2403_800" x="0" y="0" width="88" height="88" filterUnits="userSpaceOnUse" color-interpolation-filters="sRGB">
<feFlood flood-opacity="0" result="BackgroundImageFix"/>
<feColorMatrix in="SourceAlpha" type="matrix" values="0 0 0 0 0 0 0 0 0 0 0 0 0 0 0 0 0 0 127 0" result="hardAlpha"/>
<feOffset dy="4"/>
<feGaussianBlur stdDeviation="2"/>
<feComposite in2="hardAlpha" operator="out"/>
<feColorMatrix type="matrix" values="0 0 0 0 0 0 0 0 0 0 0 0 0 0 0 0 0 0 0.25 0"/>
<feBlend mode="normal" in2="BackgroundImageFix" result="effect1_dropShadow_2403_800"/>
<feBlend mode="normal" in="SourceGraphic" in2="effect1_dropShadow_2403_800" result="shape"/>
</filter>
</defs>
</svg>
